# xmcd
#
# Track frame offsets: 
#        150
#        8672
#        20540
#        56882
#        71902
#        87435
#        101850
#        116092
#        146322
#        155967
#        174897
#
# Disc length: 2822 seconds
#
# Revision: 0
# Processed by: cddbd v1.4PL0 Copyright (c) Steve Scherf et al.
# Submitted via: ExactAudioCopy v0.90b4
#
DISCID=980b040b
DTITLE=Blue Affection - September In Blue
DYEAR=1994
DGENRE=Blues
TTITLE0=Introduction Into Cosmic Blues:Strike-Don't Hesitate!
TTITLE1=Lynx-Eyed Woman
TTITLE2=Once More For The Road
TTITLE3=A Train To My Freedom
TTITLE4=Another Train To My Freedom
TTITLE5=Key To Highway
TTITLE6=Black And Tan Fantasy
TTITLE7=Vagabond
TTITLE8=Delirium Blues
TTITLE9=Sweet Lil' Lover
TTITLE10=September In Blue
EXTD=
EXTT0=
EXTT1=
EXTT2=
EXTT3=
EXTT4=
EXTT5=
EXTT6=
EXTT7=
EXTT8=
EXTT9=
EXTT10=
PLAYORDER=
